<svg width="254" height="50" xmlns="http://www.w3.org/2000/svg">
 <!-- Generator: Sketch 52.5 (67469) - http://www.bohemiancoding.com/sketch -->
 <title>Artboard Copy 4</title>
 <desc>Created with Sketch.</desc>
 <defs>
  <linearGradient id="linearGradient-1" y2="80.5833162%" x2="15.101966%" y1="9.42089678%" x1="100%">
   <stop offset="0%" stop-color="#D73F2A"/>
   <stop offset="100%" stop-color="#C90000"/>
  </linearGradient>
 </defs>
 <g>
  <title>background</title>
  <rect fill="none" id="canvas_background" height="52" width="256" y="-1" x="-1"/>
 </g>
 <g>
  <title>Layer 1</title>
  <g stroke="null" fill-rule="evenodd" fill="none" id="Artboard-Copy-4">
   <g stroke="null" id="Group">
    <g stroke="null" id="Logo-Image-SVG">
     <path stroke="null" fill="url(#linearGradient-1)" id="Combined-Shape" d="m146.328509,29.901973l-32.011082,0l0,-3.940488l35.989735,0l0,0.051849l0.359505,0c0,12.685367 -10.283522,22.968889 -22.968889,22.968889c-12.685367,0 -22.968889,-10.283522 -22.968889,-22.968889c0,-12.685367 10.283522,-22.968889 22.968889,-22.968889c4.575094,0 8.955564,1.342278 12.687549,3.81946l-2.179198,3.283064c-3.090966,-2.05169 -6.71455,-3.162036 -10.508351,-3.162036c-10.509095,0 -19.028401,8.519306 -19.028401,19.028401c0,10.509095 8.519306,19.028401 19.028401,19.028401c9.176446,0 16.835755,-6.49565 18.630731,-15.139762z"/>
     <path stroke="null" fill="#3D3D3D" id="Oval-2-Copy" d="m140.153904,36.288889l-2.959505,-2.556522c1.874817,-2.194067 2.921612,-4.980036 2.921612,-7.933944c0,-6.727962 -5.42452,-12.182058 -12.11601,-12.182058c-6.69149,0 -12.11601,5.454096 -12.11601,12.182058c0,2.935219 1.033509,5.704777 2.886803,7.893029l-2.970633,2.54343c-2.448834,-2.891414 -3.817937,-6.56029 -3.817937,-10.436459c0,-8.894594 7.171401,-16.10509 16.017778,-16.10509c8.846377,0 16.017778,7.210496 16.017778,16.10509c0,3.900885 -1.386686,7.591454 -3.863875,10.490466z"/>
    </g>
    <path stroke="null" fill="#4A4A4A" id="GRAND" d="m64.231111,22.477575c0,-0.512895 0.089458,-0.966144 0.268373,-1.359758c0.178916,-0.393614 0.417466,-0.721622 0.715662,-0.984036c0.286265,-0.250482 0.611293,-0.441323 0.97509,-0.57253c0.363797,-0.131207 0.730568,-0.196807 1.100331,-0.196807c0.369763,0 0.736534,0.0656 1.100331,0.196807c0.363797,0.131207 0.694785,0.322048 0.992981,0.57253c0.286265,0.262414 0.518855,0.590421 0.697771,0.984036c0.178916,0.393614 0.268373,0.846863 0.268373,1.359758l0,0.644096l-1.824939,0l0,-0.644096c0,-0.441329 -0.122261,-0.766357 -0.366777,-0.97509c-0.244522,-0.208739 -0.533761,-0.313102 -0.86774,-0.313102c-0.33398,0 -0.623218,0.104363 -0.86774,0.313102c-0.244522,0.208733 -0.366777,0.533761 -0.366777,0.97509l0,6.727225c0,0.441329 0.122255,0.766351 0.366777,0.97509c0.244522,0.208733 0.533761,0.313102 0.86774,0.313102c0.33398,0 0.623218,-0.104369 0.86774,-0.313102c0.244516,-0.208739 0.366777,-0.533761 0.366777,-0.97509l0,-2.397468l-1.449216,0l0,-1.61024l3.274155,0l0,4.007708c0,0.536747 -0.089458,0.995961 -0.268373,1.37765c-0.178916,0.381689 -0.411506,0.697771 -0.697771,0.948252c-0.298197,0.262407 -0.629184,0.459215 -0.992981,0.590421c-0.363797,0.131207 -0.730568,0.196807 -1.100331,0.196807c-0.369763,0 -0.736534,-0.0656 -1.100331,-0.196807c-0.363797,-0.131207 -0.688825,-0.328014 -0.97509,-0.590421c-0.298197,-0.250482 -0.536747,-0.566564 -0.715662,-0.948252c-0.178916,-0.381689 -0.268373,-0.840903 -0.268373,-1.37765l0,-6.727225zm9.554091,-1.288192l0,3.971925l1.03771,0c0.322048,0 0.57849,-0.044729 0.769337,-0.134187c0.190841,-0.089458 0.33994,-0.217679 0.447289,-0.384668c0.095424,-0.16699 0.161024,-0.372743 0.196807,-0.617259c0.035783,-0.244522 0.053675,-0.527801 0.053675,-0.849849c0,-0.322048 -0.017892,-0.605333 -0.053675,-0.849849c-0.035783,-0.244522 -0.107349,-0.456235 -0.214699,-0.63515c-0.22663,-0.33398 -0.656022,-0.500964 -1.288192,-0.500964l-0.948252,0zm-1.824939,11.021198l0,-12.738788l2.934215,0c2.146999,0 3.22048,1.246431 3.22048,3.739335c0,0.751451 -0.116295,1.389575 -0.348885,1.914396c-0.23259,0.524821 -0.64111,0.948252 -1.225572,1.2703l1.968071,5.814756l-1.932288,0l-1.699698,-5.439033l-1.091385,0l0,5.439033l-1.824939,0zm11.307463,-4.454997l-0.894578,-4.616021l-0.035783,0l-0.894578,4.616021l1.824939,0zm-4.508672,4.454997l2.844757,-12.738788l1.520782,0l2.844757,12.738788l-1.824939,0l-0.536747,-2.737408l-2.486926,0l-0.536747,2.737408l-1.824939,0zm8.033309,0l0,-12.738788l1.753372,0l2.7553,7.675477l0.035783,0l0,-7.675477l1.824939,0l0,12.738788l-1.717589,0l-2.791083,-7.657586l-0.035783,0l0,7.657586l-1.824939,0zm8.015417,0l0,-12.738788l2.701625,0c1.049642,0 1.84581,0.286265 2.388523,0.858795c0.542713,0.57253 0.814066,1.38361 0.814066,2.433252l0,5.957888c0,1.192774 -0.289245,2.072435 -0.86774,2.639004c-0.578496,0.56657 -1.410447,0.849849 -2.495872,0.849849l-2.540601,0zm1.824939,-11.021198l0,9.303609l0.840903,0c0.512889,0 0.87668,-0.128221 1.091385,-0.384668c0.214699,-0.256448 0.322048,-0.659002 0.322048,-1.20768l0,-6.136804c0,-0.500964 -0.10139,-0.888612 -0.304156,-1.162951c-0.202773,-0.274339 -0.57253,-0.411506 -1.109276,-0.411506l-0.840903,0z"/>
    <path stroke="null" fill="#4A4A4A" id="AUTO" d="m158.802007,27.755584l-0.894578,-4.616021l-0.035783,0l-0.894578,4.616021l1.824939,0zm-4.508672,4.454997l2.844757,-12.738788l1.520782,0l2.844757,12.738788l-1.824939,0l-0.536747,-2.737408l-2.486926,0l-0.536747,2.737408l-1.824939,0zm14.009088,-12.738788l0,9.876139c0,0.417472 -0.074546,0.802134 -0.223644,1.154005c-0.149098,0.351871 -0.360811,0.664967 -0.63515,0.939307c-0.274339,0.274339 -0.590421,0.489032 -0.948252,0.644096c-0.357831,0.155058 -0.739514,0.23259 -1.14506,0.23259c-0.405546,0 -0.784242,-0.077532 -1.136114,-0.23259c-0.351871,-0.155064 -0.664967,-0.369757 -0.939307,-0.644096c-0.274339,-0.274339 -0.489038,-0.587435 -0.644096,-0.939307c-0.155058,-0.351871 -0.23259,-0.736534 -0.23259,-1.154005l0,-9.876139l1.824939,0l0,9.697223c0,0.453255 0.107349,0.787228 0.322048,1.001927c0.214699,0.214699 0.483072,0.322048 0.80512,0.322048c0.322048,0 0.590421,-0.107349 0.80512,-0.322048c0.214699,-0.214699 0.322048,-0.548672 0.322048,-1.001927l0,-9.697223l1.824939,0zm2.916324,12.738788l0,-11.021198l-2.111204,0l0,-1.717589l6.047346,0l0,1.717589l-2.111204,0l0,11.021198l-1.824939,0zm4.419214,-9.733006c0,-0.512895 0.089458,-0.966144 0.268373,-1.359758c0.178916,-0.393614 0.417466,-0.721622 0.715662,-0.984036c0.286265,-0.250482 0.611293,-0.441323 0.97509,-0.57253c0.363797,-0.131207 0.730568,-0.196807 1.100331,-0.196807c0.369757,0 0.736534,0.0656 1.100331,0.196807c0.363797,0.131207 0.694785,0.322048 0.992981,0.57253c0.286265,0.262414 0.518855,0.590421 0.697771,0.984036c0.178916,0.393614 0.268373,0.846863 0.268373,1.359758l0,6.727225c0,0.536747 -0.089458,0.995961 -0.268373,1.37765c-0.178916,0.381689 -0.411506,0.697771 -0.697771,0.948252c-0.298197,0.262407 -0.629184,0.459215 -0.992981,0.590421c-0.363797,0.131207 -0.730574,0.196807 -1.100331,0.196807c-0.369763,0 -0.736534,-0.0656 -1.100331,-0.196807c-0.363797,-0.131207 -0.688825,-0.328014 -0.97509,-0.590421c-0.298197,-0.250482 -0.536747,-0.566564 -0.715662,-0.948252c-0.178916,-0.381689 -0.268373,-0.840903 -0.268373,-1.37765l0,-6.727225zm1.824939,6.727225c0,0.441329 0.122255,0.766351 0.366777,0.97509c0.244516,0.208733 0.533761,0.313102 0.86774,0.313102c0.333974,0 0.623218,-0.104369 0.86774,-0.313102c0.244516,-0.208739 0.366777,-0.533761 0.366777,-0.97509l0,-6.727225c0,-0.441329 -0.122261,-0.766357 -0.366777,-0.97509c-0.244522,-0.208739 -0.533767,-0.313102 -0.86774,-0.313102c-0.33398,0 -0.623225,0.104363 -0.86774,0.313102c-0.244522,0.208733 -0.366777,0.533761 -0.366777,0.97509l0,6.727225z"/>
   </g>
   <rect stroke="null" height="57.422223" width="136.000002" y="-3" x="60" fill-rule="nonzero" id="Rectangle"/>
  </g>
 </g>
</svg>