<?xml version="1.0" encoding="UTF-8"?>
<svg width="225px" height="95px" viewBox="0 0 225 95" version="1.1" xmlns="http://www.w3.org/2000/svg" xmlns:xlink="http://www.w3.org/1999/xlink">
    <!-- Generator: Sketch 52.5 (67469) - http://www.bohemiancoding.com/sketch -->
    <title>Artboard Copy 5</title>
    <desc>Created with Sketch.</desc>
    <g id="Artboard-Copy-5" stroke="none" stroke-width="1" fill="none" fill-rule="evenodd">
        <g id="Group" transform="translate(7.000000, 10.000000)" fill="#FFFFFF">
            <g id="Logo-Image-SVG" transform="translate(67.000000, 0.000000)">
                <path d="M68.822903,44.4334085 L15.8633904,44.4334085 L15.8633904,37.9142213 L75.4052326,37.9142213 L75.4052326,37.9999998 L76,37.9999998 C76,58.9868204 58.9868204,76 37.9999999,76 C17.0131795,76 5.81368287e-13,58.9868204 5.81368287e-13,37.9999998 C5.81368287e-13,17.0131795 17.0131795,0 37.9999999,0 C45.5690908,0 52.8161876,2.22067867 58.9904341,6.31896141 L55.3851371,11.7505025 C50.271415,8.35616455 44.276513,6.51918734 37.9999999,6.51918734 C20.6136273,6.51918734 6.51918735,20.6136272 6.51918735,37.9999998 C6.51918735,55.3863726 20.6136273,69.4808125 37.9999999,69.4808125 C53.1816245,69.4808125 65.8532736,58.7343297 68.822903,44.4334085 Z" id="Combined-Shape"></path>
                <path d="M58.6075552,55 L53.7113212,50.7704596 C56.81304,47.1405726 58.5448718,42.5314322 58.5448718,37.6444486 C58.5448718,26.5136276 49.5704769,17.4903144 38.5000001,17.4903144 C27.429523,17.4903144 18.4551282,26.5136276 18.4551282,37.6444486 C18.4551282,42.5005113 20.1649756,47.0825012 23.231095,50.7027701 L18.3164351,54.910651 C14.2650617,50.12706 12,44.0572259 12,37.6444486 C12,22.9291259 23.8644541,11 38.5000001,11 C53.1355458,11 65,22.9291259 65,37.6444486 C65,44.0981245 62.7058466,50.2038416 58.6075552,55 Z" id="Oval-2-Copy"></path>
            </g>
            <path d="M0,32.1503997 C0,31.3018622 0.147998511,30.552003 0.443999974,29.9007998 C0.740001436,29.2495966 1.13466413,28.7069354 1.6279999,28.2727999 C2.10160224,27.8583979 2.63933017,27.5426677 3.24119981,27.3256 C3.84306945,27.1085322 4.44986334,27 5.0615997,27 C5.67333605,27 6.28012995,27.1085322 6.88199959,27.3256 C7.48386923,27.5426677 8.03146372,27.8583979 8.52479949,28.2727999 C8.99840183,28.7069354 9.38319796,29.2495966 9.67919942,29.9007998 C9.97520089,30.552003 10.1231994,31.3018622 10.1231994,32.1503997 L10.1231994,33.2159996 L7.10399958,33.2159996 L7.10399958,32.1503997 C7.10399958,31.4202628 6.90173494,30.8825348 6.49719961,30.5371998 C6.09266428,30.1918647 5.61413576,30.0191998 5.0615997,30.0191998 C4.50906364,30.0191998 4.03053512,30.1918647 3.62599978,30.5371998 C3.22146445,30.8825348 3.01919982,31.4202628 3.01919982,32.1503997 L3.01919982,43.279999 C3.01919982,44.010136 3.22146445,44.5478639 3.62599978,44.8931989 C4.03053512,45.238534 4.50906364,45.4111989 5.0615997,45.4111989 C5.61413576,45.4111989 6.09266428,45.238534 6.49719961,44.8931989 C6.90173494,44.5478639 7.10399958,44.010136 7.10399958,43.279999 L7.10399958,39.3135993 L4.70639972,39.3135993 L4.70639972,36.6495994 L10.1231994,36.6495994 L10.1231994,43.279999 C10.1231994,44.1680034 9.97520089,44.9277291 9.67919942,45.5591989 C9.38319796,46.1906687 8.99840183,46.7135968 8.52479949,47.1279988 C8.03146372,47.5621343 7.48386923,47.887731 6.88199959,48.1047987 C6.28012995,48.3218665 5.67333605,48.4303987 5.0615997,48.4303987 C4.44986334,48.4303987 3.84306945,48.3218665 3.24119981,48.1047987 C2.63933017,47.887731 2.10160224,47.5621343 1.6279999,47.1279988 C1.13466413,46.7135968 0.740001436,46.1906687 0.443999974,45.5591989 C0.147998511,44.9277291 0,44.1680034 0,43.279999 L0,32.1503997 Z M15.8063991,30.0191998 L15.8063991,36.5903994 L17.523199,36.5903994 C18.0560016,36.5903994 18.480264,36.5164002 18.7959989,36.3683994 C19.1117338,36.2203987 19.358398,36.0082675 19.5359988,35.7319995 C19.6938663,35.4557314 19.8023985,35.1153349 19.8615988,34.7107995 C19.9207991,34.3062642 19.9503988,33.8376023 19.9503988,33.3047996 C19.9503988,32.771997 19.9207991,32.303335 19.8615988,31.8987997 C19.8023985,31.4942644 19.6839997,31.1440012 19.5063988,30.8479998 C19.1314637,30.2954637 18.4210708,30.0191998 17.375199,30.0191998 L15.8063991,30.0191998 Z M12.7871992,48.2527987 L12.7871992,27.1776 L17.6415989,27.1776 C21.1936165,27.1776 22.9695986,29.2397126 22.9695986,33.3639996 C22.9695986,34.6072058 22.7772006,35.6629285 22.3923987,36.5311994 C22.0075968,37.3994704 21.3317369,38.0999967 20.3647988,38.6327993 L23.6207986,48.2527987 L20.4239988,48.2527987 L17.611999,39.2543993 L15.8063991,39.2543993 L15.8063991,48.2527987 L12.7871992,48.2527987 Z M31.4943981,40.8823992 L30.0143982,33.2455996 L29.9551982,33.2455996 L28.4751983,40.8823992 L31.4943981,40.8823992 Z M24.0351986,48.2527987 L28.7415983,27.1776 L31.2575981,27.1776 L35.9639979,48.2527987 L32.944798,48.2527987 L32.0567981,43.723999 L27.9423983,43.723999 L27.0543984,48.2527987 L24.0351986,48.2527987 Z M37.3255978,48.2527987 L37.3255978,27.1776 L40.2263976,27.1776 L44.7847973,39.8759992 L44.8439973,39.8759992 L44.8439973,27.1776 L47.8631971,27.1776 L47.8631971,48.2527987 L45.0215973,48.2527987 L40.4039976,35.5839995 L40.3447976,35.5839995 L40.3447976,48.2527987 L37.3255978,48.2527987 Z M50.586397,48.2527987 L50.586397,27.1776 L55.0559967,27.1776 C56.7925386,27.1776 58.1097254,27.6511952 59.0075965,28.5983999 C59.9054676,29.5456046 60.3543964,30.8874578 60.3543964,32.6239997 L60.3543964,42.4807991 C60.3543964,44.4541422 59.8758679,45.9094609 58.9187965,46.8467988 C57.9617251,47.7841368 56.5853389,48.2527987 54.7895967,48.2527987 L50.586397,48.2527987 Z M53.6055968,30.0191998 L53.6055968,45.4111989 L54.9967967,45.4111989 C55.8453342,45.4111989 56.4471949,45.1990677 56.8023966,44.7747989 C57.1575984,44.3505302 57.3351966,43.6845369 57.3351966,42.7767991 L57.3351966,32.6239997 C57.3351966,31.7951956 57.1674649,31.1538687 56.8319966,30.6999998 C56.4965283,30.2461309 55.8848011,30.0191998 54.9967967,30.0191998 L53.6055968,30.0191998 Z" id="GRAND"></path>
            <path d="M156.4592,40.8823992 L154.9792,33.2455996 L154.92,33.2455996 L153.44,40.8823992 L156.4592,40.8823992 Z M149,48.2527987 L153.7064,27.1776 L156.2224,27.1776 L160.928799,48.2527987 L157.909599,48.2527987 L157.0216,43.723999 L152.9072,43.723999 L152.0192,48.2527987 L149,48.2527987 Z M172.176799,27.1776 L172.176799,43.516799 C172.176799,44.2074691 172.053467,44.8438627 171.806799,45.4259989 C171.560131,46.0081351 171.209868,46.5261299 170.755999,46.9799988 C170.30213,47.4338677 169.779202,47.7890641 169.187199,48.0455987 C168.595196,48.3021333 167.963736,48.4303987 167.292799,48.4303987 C166.621862,48.4303987 165.995335,48.3021333 165.413199,48.0455987 C164.831063,47.7890641 164.313068,47.4338677 163.859199,46.9799988 C163.40533,46.5261299 163.050134,46.0081351 162.793599,45.4259989 C162.537065,44.8438627 162.408799,44.2074691 162.408799,43.516799 L162.408799,27.1776 L165.427999,27.1776 L165.427999,43.220799 C165.427999,43.9706694 165.605597,44.5231972 165.960799,44.8783989 C166.316001,45.2336007 166.759996,45.4111989 167.292799,45.4111989 C167.825602,45.4111989 168.269597,45.2336007 168.624799,44.8783989 C168.980001,44.5231972 169.157599,43.9706694 169.157599,43.220799 L169.157599,27.1776 L172.176799,27.1776 Z M177.001598,48.2527987 L177.001598,30.0191998 L173.508799,30.0191998 L173.508799,27.1776 L183.513598,27.1776 L183.513598,30.0191998 L180.020798,30.0191998 L180.020798,48.2527987 L177.001598,48.2527987 Z M184.312798,32.1503997 C184.312798,31.3018622 184.460796,30.552003 184.756798,29.9007998 C185.052799,29.2495966 185.447462,28.7069354 185.940798,28.2727999 C186.4144,27.8583979 186.952128,27.5426677 187.553998,27.3256 C188.155867,27.1085322 188.762661,27 189.374398,27 C189.986134,27 190.592928,27.1085322 191.194797,27.3256 C191.796667,27.5426677 192.344262,27.8583979 192.837597,28.2727999 C193.3112,28.7069354 193.695996,29.2495966 193.991997,29.9007998 C194.287999,30.552003 194.435997,31.3018622 194.435997,32.1503997 L194.435997,43.279999 C194.435997,44.1680034 194.287999,44.9277291 193.991997,45.5591989 C193.695996,46.1906687 193.3112,46.7135968 192.837597,47.1279988 C192.344262,47.5621343 191.796667,47.887731 191.194797,48.1047987 C190.592928,48.3218665 189.986134,48.4303987 189.374398,48.4303987 C188.762661,48.4303987 188.155867,48.3218665 187.553998,48.1047987 C186.952128,47.887731 186.4144,47.5621343 185.940798,47.1279988 C185.447462,46.7135968 185.052799,46.1906687 184.756798,45.5591989 C184.460796,44.9277291 184.312798,44.1680034 184.312798,43.279999 L184.312798,32.1503997 Z M187.331998,43.279999 C187.331998,44.010136 187.534262,44.5478639 187.938798,44.8931989 C188.343333,45.238534 188.821862,45.4111989 189.374398,45.4111989 C189.926934,45.4111989 190.405462,45.238534 190.809998,44.8931989 C191.214533,44.5478639 191.416797,44.010136 191.416797,43.279999 L191.416797,32.1503997 C191.416797,31.4202628 191.214533,30.8825348 190.809998,30.5371998 C190.405462,30.1918647 189.926934,30.0191998 189.374398,30.0191998 C188.821862,30.0191998 188.343333,30.1918647 187.938798,30.5371998 C187.534262,30.8825348 187.331998,31.4202628 187.331998,32.1503997 L187.331998,43.279999 Z" id="AUTO"></path>
        </g>
        <rect id="Rectangle" fill-rule="nonzero" x="0" y="0" width="225" height="95"></rect>
    </g>
</svg>